<?xml version="1.0" encoding="UTF-8"?>
<svg width="800" height="600" xmlns="http://www.w3.org/2000/svg" xmlns:xlink="http://www.w3.org/1999/xlink" viewBox="0 0 800 600">
  <defs>
    <linearGradient id="compGradient1" x1="0%" y1="0%" x2="100%" y2="0%">
      <stop offset="0%" style="stop-color:#7209b7;stop-opacity:1" />
      <stop offset="100%" style="stop-color:#3a0ca3;stop-opacity:1" />
    </linearGradient>
    <linearGradient id="compGradient2" x1="0%" y1="0%" x2="100%" y2="0%">
      <stop offset="0%" style="stop-color:#4361ee;stop-opacity:1" />
      <stop offset="100%" style="stop-color:#3a0ca3;stop-opacity:1" />
    </linearGradient>
    <linearGradient id="compGradient3" x1="0%" y1="0%" x2="100%" y2="0%">
      <stop offset="0%" style="stop-color:#4cc9f0;stop-opacity:1" />
      <stop offset="100%" style="stop-color:#4361ee;stop-opacity:1" />
    </linearGradient>
    <linearGradient id="compGradient4" x1="0%" y1="0%" x2="100%" y2="0%">
      <stop offset="0%" style="stop-color:#f72585;stop-opacity:1" />
      <stop offset="100%" style="stop-color:#7209b7;stop-opacity:1" />
    </linearGradient>
    <linearGradient id="compGradient5" x1="0%" y1="0%" x2="100%" y2="0%">
      <stop offset="0%" style="stop-color:#ff9e00;stop-opacity:1" />
      <stop offset="100%" style="stop-color:#f72585;stop-opacity:1" />
    </linearGradient>
    <linearGradient id="compGradient6" x1="0%" y1="0%" x2="100%" y2="0%">
      <stop offset="0%" style="stop-color:#06d6a0;stop-opacity:1" />
      <stop offset="100%" style="stop-color:#4cc9f0;stop-opacity:1" />
    </linearGradient>
    <filter id="shadow" x="-20%" y="-20%" width="140%" height="140%">
      <feDropShadow dx="2" dy="2" stdDeviation="3" flood-color="#00000044"/>
    </filter>
    
    <style type="text/css">
      @keyframes spin {
        0% { transform: rotate(0deg); }
        100% { transform: rotate(360deg); }
      }
      @keyframes float {
        0% { transform: translateY(0px); }
        50% { transform: translateY(-5px); }
        100% { transform: translateY(0px); }
      }
      @keyframes dataFlow {
        0% { stroke-dashoffset: 20; }
        100% { stroke-dashoffset: 0; }
      }
      .comp-title {
        font-family: 'Arial', sans-serif;
        font-size: 16px;
        font-weight: bold;
        fill: white;
        text-anchor: middle;
      }
      .comp-subtitle {
        font-family: 'Arial', sans-serif;
        font-size: 12px;
        fill: white;
        text-anchor: middle;
      }
      .data-flow {
        stroke-dasharray: 5 3;
        animation: dataFlow 5s linear infinite;
      }
      .interface {
        fill: white;
        stroke: #212529;
        stroke-width: 1;
      }
      .spinning {
        transform-origin: center;
        animation: spin 20s linear infinite;
      }
      .floating {
        animation: float 4s ease-in-out infinite;
      }
    </style>
  </defs>

  <!-- Background -->
  <rect width="800" height="600" fill="#f8f9fa" />
  
  <!-- Title -->
  <text x="400" y="40" font-family="Arial" font-size="24" font-weight="bold" text-anchor="middle" fill="#212529">
    System Components
  </text>
  
  <!-- Central Hub -->
  <g transform="translate(400, 300)">
    <circle cx="0" cy="0" r="70" fill="#dee2e6" filter="url(#shadow)" />
    <circle cx="0" cy="0" r="60" fill="#ffffff" />
    <text x="0" y="0" font-family="Arial" font-size="18" font-weight="bold" text-anchor="middle" fill="#212529">Core</text>
    <text x="0" y="25" font-family="Arial" font-size="18" font-weight="bold" text-anchor="middle" fill="#212529">System</text>
    
    <!-- Spinning indicators -->
    <g class="spinning">
      <circle cx="45" cy="0" r="8" fill="#ff9e00" />
      <circle cx="-45" cy="0" r="8" fill="#f72585" />
      <circle cx="0" cy="45" r="8" fill="#4361ee" />
      <circle cx="0" cy="-45" r="8" fill="#7209b7" />
    </g>
  </g>
  
  <!-- Component 1: Identifier Generator -->
  <g transform="translate(200, 150)" class="floating" style="animation-delay: 0.0s;">
    <rect x="-80" y="-50" width="160" height="100" rx="10" fill="url(#compGradient1)" filter="url(#shadow)" />
    <text x="0" y="-15" class="comp-title">Identifier</text>
    <text x="0" y="10" class="comp-title">Generator</text>
    <text x="0" y="35" class="comp-subtitle">W3C DID Creation</text>
    
    <!-- Interface -->
    <circle cx="70" cy="0" r="10" class="interface" />
  </g>
  
  <!-- Component 2: Metadata Manager -->
  <g transform="translate(600, 150)" class="floating" style="animation-delay: 0.5s;">
    <rect x="-80" y="-50" width="160" height="100" rx="10" fill="url(#compGradient2)" filter="url(#shadow)" />
    <text x="0" y="-15" class="comp-title">Metadata</text>
    <text x="0" y="10" class="comp-title">Manager</text>
    <text x="0" y="35" class="comp-subtitle">Hierarchical Metadata</text>
    
    <!-- Interface -->
    <circle cx="-70" cy="0" r="10" class="interface" />
  </g>
  
  <!-- Component 3: Watermarking Engine -->
  <g transform="translate(200, 450)" class="floating" style="animation-delay: 1.0s;">
    <rect x="-80" y="-50" width="160" height="100" rx="10" fill="url(#compGradient3)" filter="url(#shadow)" />
    <text x="0" y="-15" class="comp-title">Watermarking</text>
    <text x="0" y="10" class="comp-title">Engine</text>
    <text x="0" y="35" class="comp-subtitle">Multi-layer Protection</text>
    
    <!-- Interface -->
    <circle cx="70" cy="0" r="10" class="interface" />
  </g>
  
  <!-- Component 4: Registry Connector -->
  <g transform="translate(600, 450)" class="floating" style="animation-delay: 1.5s;">
    <rect x="-80" y="-50" width="160" height="100" rx="10" fill="url(#compGradient4)" filter="url(#shadow)" />
    <text x="0" y="-15" class="comp-title">Registry</text>
    <text x="0" y="10" class="comp-title">Connector</text>
    <text x="0" y="35" class="comp-subtitle">Distributed Ledgers</text>
    
    <!-- Interface -->
    <circle cx="-70" cy="0" r="10" class="interface" />
  </g>
  
  <!-- Component 5: Relationship Manager -->
  <g transform="translate(100, 300)" class="floating" style="animation-delay: 2.0s;">
    <rect x="-80" y="-50" width="160" height="100" rx="10" fill="url(#compGradient5)" filter="url(#shadow)" />
    <text x="0" y="-15" class="comp-title">Relationship</text>
    <text x="0" y="10" class="comp-title">Manager</text>
    <text x="0" y="35" class="comp-subtitle">Graph-based Model</text>
    
    <!-- Interface -->
    <circle cx="70" cy="0" r="10" class="interface" />
  </g>
  
  <!-- Component 6: Execution Orchestrator -->
  <g transform="translate(700, 300)" class="floating" style="animation-delay: 2.5s;">
    <rect x="-80" y="-50" width="160" height="100" rx="10" fill="url(#compGradient6)" filter="url(#shadow)" />
    <text x="0" y="-15" class="comp-title">Execution</text>
    <text x="0" y="10" class="comp-title">Orchestrator</text>
    <text x="0" y="35" class="comp-subtitle">Resource Composition</text>
    
    <!-- Interface -->
    <circle cx="-70" cy="0" r="10" class="interface" />
  </g>
  
  <!-- Connections -->
  <path d="M 270 150 C 300 200, 350 250, 400 300" class="data-flow" fill="none" stroke="url(#compGradient1)" stroke-width="3" />
  <path d="M 530 150 C 500 200, 450 250, 400 300" class="data-flow" fill="none" stroke="url(#compGradient2)" stroke-width="3" />
  <path d="M 270 450 C 300 400, 350 350, 400 300" class="data-flow" fill="none" stroke="url(#compGradient3)" stroke-width="3" />
  <path d="M 530 450 C 500 400, 450 350, 400 300" class="data-flow" fill="none" stroke="url(#compGradient4)" stroke-width="3" />
  <path d="M 170 300 L 330 300" class="data-flow" fill="none" stroke="url(#compGradient5)" stroke-width="3" />
  <path d="M 630 300 L 470 300" class="data-flow" fill="none" stroke="url(#compGradient6)" stroke-width="3" />
  
  <!-- Direct Connections Between Components -->
  <path d="M 270 150 C 350 150, 450 150, 530 150" class="data-flow" fill="none" stroke="#adb5bd" stroke-width="2" />
  <path d="M 270 450 C 350 450, 450 450, 530 450" class="data-flow" fill="none" stroke="#adb5bd" stroke-width="2" />
  <path d="M 200 200 C 200 250, 200 350, 200 400" class="data-flow" fill="none" stroke="#adb5bd" stroke-width="2" />
  <path d="M 600 200 C 600 250, 600 350, 600 400" class="data-flow" fill="none" stroke="#adb5bd" stroke-width="2" />
  
  <!-- Legend -->
  <g transform="translate(400, 550)">
    <rect x="-200" y="-30" width="400" height="60" rx="5" fill="#ffffff" stroke="#dee2e6" stroke-width="1" />
    <text x="0" y="-10" font-family="Arial" font-size="14" font-weight="bold" text-anchor="middle" fill="#212529">Component Interactions</text>
    
    <circle cx="-160" cy="15" r="8" fill="url(#compGradient1)" />
    <text x="-140" y="20" font-family="Arial" font-size="12" text-anchor="start" fill="#212529">Component</text>
    
    <line x1="-80" y1="15" x2="-40" y2="15" class="data-flow" stroke="#adb5bd" stroke-width="2" />
    <text x="-20" y="20" font-family="Arial" font-size="12" text-anchor="start" fill="#212529">Data Flow</text>
    
    <circle cx="50" cy="15" r="6" class="interface" />
    <text x="70" y="20" font-family="Arial" font-size="12" text-anchor="start" fill="#212529">Interface</text>
    
    <g transform="translate(140, 15)" class="spinning" style="animation-duration: 5s;">
      <circle cx="0" cy="0" r="8" fill="#f72585" />
    </g>
    <text x="160" y="20" font-family="Arial" font-size="12" text-anchor="start" fill="#212529">Active</text>
  </g>
</svg>
