<?xml version="1.0" encoding="UTF-8"?>
<svg width="800" height="600" xmlns="http://www.w3.org/2000/svg" xmlns:xlink="http://www.w3.org/1999/xlink" viewBox="0 0 800 600">
  <defs>
    <linearGradient id="bgGradient" x1="0%" y1="0%" x2="100%" y2="100%">
      <stop offset="0%" style="stop-color:#f8f9fa;stop-opacity:1" />
      <stop offset="100%" style="stop-color:#e9ecef;stop-opacity:1" />
    </linearGradient>
    <linearGradient id="highlightGradient" x1="0%" y1="0%" x2="100%" y2="100%">
      <stop offset="0%" style="stop-color:#4361ee;stop-opacity:1" />
      <stop offset="100%" style="stop-color:#3a0ca3;stop-opacity:1" />
    </linearGradient>
    <filter id="shadow" x="-20%" y="-20%" width="140%" height="140%">
      <feDropShadow dx="3" dy="3" stdDeviation="5" flood-color="#00000033"/>
    </filter>
    <style type="text/css">
      @keyframes pulse {
        0% { opacity: 0.7; }
        50% { opacity: 1; }
        100% { opacity: 0.7; }
      }
      @keyframes rotate {
        0% { transform: rotate(0deg); }
        100% { transform: rotate(360deg); }
      }
      @keyframes dataflow {
        0% { stroke-dashoffset: 100; }
        100% { stroke-dashoffset: 0; }
      }
      .data-flow {
        stroke-dasharray: 10 5;
        animation: dataflow 10s linear infinite;
      }
      .rotating {
        transform-origin: center;
        animation: rotate 20s linear infinite;
      }
      .pulsing {
        animation: pulse 3s ease-in-out infinite;
      }
      .node-label {
        font-family: 'Arial', sans-serif;
        font-size: 14px;
        font-weight: bold;
        text-anchor: middle;
      }
      .connection-label {
        font-family: 'Arial', sans-serif;
        font-size: 12px;
        fill: #495057;
      }
    </style>
  </defs>

  <!-- Background -->
  <rect width="800" height="600" fill="url(#bgGradient)" />
  
  <!-- Title -->
  <text x="400" y="50" font-family="Arial" font-size="24" font-weight="bold" text-anchor="middle" fill="#212529">
    Decentralized Digital Resource Integrated ID System
  </text>
  
  <!-- Central Hub -->
  <g transform="translate(400, 300)" class="pulsing">
    <circle cx="0" cy="0" r="80" fill="url(#highlightGradient)" filter="url(#shadow)" />
    <circle cx="0" cy="0" r="70" fill="#ffffff33" />
    <text x="0" y="0" class="node-label" fill="white">DID Core</text>
    <text x="0" y="25" class="node-label" fill="white">System</text>
    
    <!-- Inner spinning circles -->
    <g class="rotating">
      <circle cx="0" cy="-40" r="8" fill="#f72585" />
      <circle cx="40" cy="0" r="8" fill="#7209b7" />
      <circle cx="0" cy="40" r="8" fill="#3f37c9" />
      <circle cx="-40" cy="0" r="8" fill="#4cc9f0" />
    </g>
  </g>
  
  <!-- Resource Types -->
  <g transform="translate(200, 150)">
    <rect x="-75" y="-50" width="150" height="100" rx="15" fill="#4cc9f0" filter="url(#shadow)" />
    <text x="0" y="-20" class="node-label" fill="white">Digital Content</text>
    <text x="0" y="5" class="connection-label" fill="white">• Text, Images</text>
    <text x="0" y="25" class="connection-label" fill="white">• Audio, Video</text>
  </g>
  
  <g transform="translate(600, 150)">
    <rect x="-75" y="-50" width="150" height="100" rx="15" fill="#4361ee" filter="url(#shadow)" />
    <text x="0" y="-20" class="node-label" fill="white">AI Resources</text>
    <text x="0" y="5" class="connection-label" fill="white">• Models</text>
    <text x="0" y="25" class="connection-label" fill="white">• Datasets</text>
  </g>
  
  <g transform="translate(200, 450)">
    <rect x="-75" y="-50" width="150" height="100" rx="15" fill="#3a0ca3" filter="url(#shadow)" />
    <text x="0" y="-20" class="node-label" fill="white">Code Resources</text>
    <text x="0" y="5" class="connection-label" fill="white">• Executable Code</text>
    <text x="0" y="25" class="connection-label" fill="white">• APIs</text>
  </g>
  
  <g transform="translate(600, 450)">
    <rect x="-75" y="-50" width="150" height="100" rx="15" fill="#7209b7" filter="url(#shadow)" />
    <text x="0" y="-20" class="node-label" fill="white">Composite</text>
    <text x="0" y="5" class="connection-label" fill="white">• Complex Resources</text>
    <text x="0" y="25" class="connection-label" fill="white">• Relationships</text>
  </g>
  
  <!-- Connections -->
  <path d="M 280 180 C 320 220, 380 250, 400 300" class="data-flow" fill="none" stroke="#4cc9f0" stroke-width="3" />
  <path d="M 520 180 C 480 220, 420 250, 400 300" class="data-flow" fill="none" stroke="#4361ee" stroke-width="3" />
  <path d="M 280 420 C 320 380, 380 350, 400 300" class="data-flow" fill="none" stroke="#3a0ca3" stroke-width="3" />
  <path d="M 520 420 C 480 380, 420 350, 400 300" class="data-flow" fill="none" stroke="#7209b7" stroke-width="3" />
  
  <!-- System Components -->
  <g transform="translate(100, 300)">
    <circle cx="0" cy="0" r="60" fill="#f72585" filter="url(#shadow)" />
    <text x="0" y="-10" class="node-label" fill="white">ID Generation</text>
    <text x="0" y="15" class="node-label" fill="white">& Verification</text>
  </g>
  
  <g transform="translate(700, 300)">
    <circle cx="0" cy="0" r="60" fill="#f72585" filter="url(#shadow)" />
    <text x="0" y="-10" class="node-label" fill="white">Distributed</text>
    <text x="0" y="15" class="node-label" fill="white">Registry</text>
  </g>
  
  <!-- Component Connections -->
  <path d="M 160 300 L 320 300" class="data-flow" fill="none" stroke="#f72585" stroke-width="3" />
  <path d="M 480 300 L 640 300" class="data-flow" fill="none" stroke="#f72585" stroke-width="3" />
  
  <!-- Legend -->
  <g transform="translate(400, 550)">
    <rect x="-200" y="-20" width="400" height="40" rx="5" fill="#ffffff80" />
    <text x="-170" y="5" class="connection-label" fill="#212529">● Resource Types</text>
    <text x="-30" y="5" class="connection-label" fill="#212529">● Core System</text>
    <text x="110" y="5" class="connection-label" fill="#212529">● Component Functions</text>
  </g>
</svg>
